<svg width="21" height="21" viewBox="0 0 21 21" fill="none" xmlns="http://www.w3.org/2000/svg">
<path d="M10.3477 0C16.0622 0.000229104 20.6951 4.63404 20.6953 10.3486C20.695 16.0632 16.0622 20.6961 10.3477 20.6963C4.63305 20.6961 0.000263889 16.0632 0 10.3486C0.000208805 4.634 4.63301 0.000168011 10.3477 0ZM15.6338 11.0488C15.3661 14.5808 13.5147 17.4499 11.9658 19.1475C15.9107 18.4264 18.9501 15.1209 19.2656 11.0488H15.6338ZM1.42969 11.0488C1.73839 15.0338 4.65497 18.2864 8.47656 19.0996C6.93767 17.3773 5.14648 14.5323 4.88379 11.0488H1.42969ZM6.29688 11.0488C6.5641 14.1497 8.20692 16.7082 9.58105 18.2266V11.0488H6.29688ZM10.9814 18.1514C12.3417 16.6436 13.9628 14.1137 14.2285 11.0488H10.9814V18.1514ZM8.4541 1.60352C4.64357 2.42461 1.73778 5.6714 1.42969 9.64844H4.86426C5.03086 6.04946 6.86299 3.25192 8.4541 1.60352ZM9.58105 2.46094C8.16622 3.88407 6.44581 6.4062 6.27344 9.64844H9.58105V2.46094ZM10.9814 9.64844H14.251C14.0787 6.44338 12.3823 3.94777 10.9814 2.53418V9.64844ZM11.9775 1.55176C13.5814 3.1718 15.4824 5.99333 15.6533 9.64844H19.2656C18.9504 5.58037 15.9167 2.2771 11.9775 1.55176Z" fill="#131212"/>
</svg>
