<svg width="20" height="21" viewBox="0 0 20 21" fill="none" xmlns="http://www.w3.org/2000/svg">
<path d="M9.41113 0.341797C9.4897 0.339905 9.56844 0.336917 9.64746 0.336914C9.69442 0.336914 9.74128 0.339175 9.78809 0.339844L9.97852 0.0683594C10.1021 0.154599 10.2338 0.254569 10.373 0.366211C15.3623 0.737271 19.2957 4.90034 19.2959 9.98438L19.2832 10.4814C19.0383 15.3106 15.2418 19.2002 10.4541 19.5967C10.2965 19.7398 10.1495 19.8685 10.0117 19.9775L9.7373 19.6299C9.70738 19.6302 9.67745 19.6328 9.64746 19.6328L9.46777 19.6279L9.13867 20.0449C9.13688 20.0435 9.13558 20.0415 9.13379 20.04L9.13086 20.0449C8.96435 19.9131 8.78322 19.7542 8.58887 19.5732C3.75884 19.0458 0 14.9548 0 9.98438C0.000157547 4.98826 3.79788 0.878506 8.66406 0.385742C8.84274 0.238067 9.01009 0.108133 9.16504 0L9.16699 0.00292969C9.16877 0.00168991 9.17108 0.00123454 9.17285 0L9.41113 0.341797ZM14.9326 10.6846C14.7077 13.652 13.3659 16.1523 12.0244 17.8828C15.2057 16.9267 17.5758 14.1029 17.8633 10.6846H14.9326ZM5.59082 10.6846C5.85827 13.7874 7.5033 16.3462 8.87793 17.8643V10.6846H5.59082ZM1.43262 10.6846C1.71162 14.0026 3.95259 16.7595 6.99316 17.793C5.67963 16.0564 4.39709 13.5926 4.17773 10.6846H1.43262ZM10.2783 17.7891C11.639 16.2815 13.2616 13.751 13.5273 10.6846H10.2783V17.7891ZM6.89844 2.20703C3.9058 3.26483 1.70885 6.00063 1.43262 9.28418H4.15723C4.29451 6.31483 5.56427 3.89033 6.89844 2.20703ZM8.87793 2.09277C7.46237 3.51541 5.73967 6.03911 5.56738 9.28418H8.87793V2.09277ZM10.2783 9.28418H13.5488C13.3766 6.07753 11.6795 3.58126 10.2783 2.16797V9.28418ZM12.1084 2.11133C13.4757 3.78674 14.8103 6.24818 14.9521 9.28418H17.8633C17.5782 5.89602 15.2475 3.09131 12.1084 2.11133Z" fill="#FF00BB"/>
</svg>
