<svg width="25" height="11" viewBox="0 0 25 11" fill="none" xmlns="http://www.w3.org/2000/svg">
<path d="M18.7871 0C22.084 2.40319e-05 24.7568 2.25104 24.7568 5.02734C24.7566 7.8035 22.0838 10.0537 18.7871 10.0537C16.7099 10.0537 14.8808 9.16017 13.8115 7.80469C13.7968 7.78893 13.7807 7.77352 13.7656 7.75684C11.9779 5.78067 9.67637 6.71227 9.01367 7.64355C8.15975 9.08906 6.62045 10.0546 4.8623 10.0547C2.17702 10.0547 0 7.80366 0 5.02734C9.66541e-05 2.25111 2.17708 0.000976562 4.8623 0.000976562C6.61163 0.00103612 8.1445 0.956216 9.00098 2.38965C10.9729 5.05158 12.7478 3.55295 13.7139 2.37695C14.7671 0.95015 16.6453 0 18.7871 0Z" fill="#131212"/>
</svg>
