<svg width="110" height="14" viewBox="0 0 110 14" fill="none" xmlns="http://www.w3.org/2000/svg">
<path d="M24.9502 13.5653C24.0084 13.5653 23.4162 12.5499 23.8799 11.7302L29.508 1.78168C29.9636 0.976226 30.8174 0.478271 31.7428 0.478271C32.6662 0.478271 33.5185 0.974111 33.975 1.77685L39.555 11.591C40.0558 12.4718 39.4197 13.5653 38.4065 13.5653C37.9372 13.5653 37.5032 13.3164 37.2662 12.9114L35.7095 10.2514C35.3766 9.68266 34.6707 9.45304 34.0669 9.71712L34.0195 9.73788C32.5332 10.3879 30.8411 10.3778 29.3627 9.70992C28.784 9.44849 28.1011 9.65325 27.7617 10.19L25.9894 12.9928C25.7641 13.3492 25.3718 13.5653 24.9502 13.5653ZM30.2311 5.36808C29.6097 6.4767 30.411 7.8444 31.6819 7.8444C32.9456 7.8444 33.7477 6.4906 33.1406 5.38226L32.8814 4.90916C32.3926 4.00971 30.9839 4.01339 30.4884 4.90916L30.2311 5.36808Z" fill="#131212"/>
<path d="M93.4502 13.5653C92.5084 13.5653 91.9162 12.5499 92.3799 11.7302L98.008 1.78168C98.4636 0.976226 99.3174 0.478271 100.243 0.478271C101.166 0.478271 102.019 0.974111 102.475 1.77685L108.055 11.591C108.556 12.4718 107.92 13.5653 106.906 13.5653C106.437 13.5653 106.003 13.3164 105.766 12.9114L104.209 10.2514C103.877 9.68266 103.171 9.45304 102.567 9.71712L102.519 9.73788C101.033 10.3879 99.3411 10.3778 97.8627 9.70992C97.284 9.44849 96.6011 9.65325 96.2617 10.19L94.4894 12.9928C94.2641 13.3492 93.8718 13.5653 93.4502 13.5653ZM98.7311 5.36808C98.1097 6.4767 98.911 7.8444 100.182 7.8444C101.446 7.8444 102.248 6.4906 101.641 5.38226L101.381 4.90916C100.893 4.00971 99.4839 4.01339 98.9884 4.90916L98.7311 5.36808Z" fill="#131212"/>
<path d="M43.0217 13.5653C42.1387 13.5653 41.4229 12.8495 41.4229 11.9664V4.86033C41.4229 2.44018 43.3848 0.478271 45.8049 0.478271C46.2704 0.478271 46.7343 0.533909 47.1866 0.644001L85.5478 9.98069C86.5721 10.23 87.5599 9.36594 87.5599 8.31179V1.99579C87.5599 1.15769 88.2393 0.478271 89.0774 0.478271C89.9156 0.478271 90.595 1.15769 90.595 1.99579V10.8509C90.595 12.35 89.3797 13.5653 87.8806 13.5653C87.5495 13.5653 87.2196 13.5249 86.8982 13.445L46.2707 3.34434C45.4344 3.13643 44.6206 3.89786 44.6206 4.7596V11.9664C44.6206 12.8495 43.9048 13.5653 43.0217 13.5653Z" fill="#131212"/>
<path d="M6.57192 13.5653C5.58736 13.5653 4.70571 12.9555 4.35828 12.0343L0.661689 2.23275C0.341802 1.38457 0.968605 0.478271 1.87511 0.478271C2.42153 0.478271 2.90933 0.820773 3.09488 1.33472L5.62742 8.34918C5.97253 9.29985 7.31394 9.30913 7.68395 8.36788L10.2133 1.89877C10.5483 1.04208 11.3741 0.478271 12.294 0.478271C13.2216 0.478271 14.0527 1.05152 14.3823 1.91864L16.8262 8.34918C17.1835 9.29131 18.5174 9.28829 18.8704 8.34456L18.8827 8.31179L21.4986 1.28574C21.6794 0.800259 22.1428 0.478271 22.6609 0.478271C23.5278 0.478271 24.1272 1.34497 23.8213 2.1561L20.0829 12.0683C19.7432 12.9691 18.8812 13.5653 17.9185 13.5653C16.9572 13.5653 16.0961 12.9708 15.7554 12.0719L13.0122 4.83438L12.9448 4.65934C12.7207 4.07802 11.901 4.07038 11.6661 4.64742L8.77612 12.059C8.42194 12.9673 7.54684 13.5653 6.57192 13.5653Z" fill="#131212"/>
</svg>
