<svg width="17" height="19" viewBox="0 0 17 19" fill="none" xmlns="http://www.w3.org/2000/svg">
<path d="M11.96 9.96289C14.1717 9.79122 16.2276 11.2845 16.626 13.5039C17.0911 16.0974 15.0977 18.4805 12.4629 18.4805H4.2207C1.71495 18.4801 -0.239285 16.3094 0.0234375 13.8174C0.271466 11.4663 2.3905 9.80263 4.70996 9.97461C5.86627 10.0604 7.13984 10.1279 8.27637 10.1279C9.46422 10.1279 10.7846 10.0541 11.96 9.96289ZM12.0684 11.3584C10.8756 11.451 9.5152 11.5273 8.27637 11.5273C7.09094 11.5273 5.77854 11.4572 4.60547 11.3701C3.00209 11.2515 1.58086 12.403 1.41602 13.9639C1.2404 15.6292 2.5462 17.0807 4.2207 17.0811H12.4629C14.2256 17.0811 15.5592 15.486 15.248 13.751C14.983 12.2751 13.5998 11.2396 12.0684 11.3584ZM8.49707 0C10.7561 0.000100238 12.5869 1.83179 12.5869 4.09082V4.84668C12.5867 6.83798 10.9728 8.45203 8.98145 8.45215H8.0127C6.02144 8.45193 4.4065 6.83792 4.40625 4.84668V4.09082C4.40625 1.83187 6.23817 0.000215984 8.49707 0ZM8.49707 1.40039C7.01137 1.40061 5.80664 2.60506 5.80664 4.09082V4.84668C5.80689 6.06472 6.79464 7.05252 8.0127 7.05273H8.98145C10.1996 7.05262 11.1873 6.06479 11.1875 4.84668V4.09082C11.1875 2.60499 9.98287 1.40049 8.49707 1.40039Z" fill="#131212"/>
</svg>
